<svg width="24" height="24" viewBox="0 0 24 24" fill="none" xmlns="http://www.w3.org/2000/svg">
<path d="M12 1.09082C7.44365 1.09082 3.75 4.67254 3.75 9.09082C3.75 12.0491 5.40631 14.6315 7.86516 16.0149C8.55062 16.4006 8.97985 16.9923 8.99928 17.5878C9.00999 17.9163 9.24656 18.197 9.5764 18.2726C9.92778 18.3532 10.2859 18.4165 10.6496 18.4619C10.9732 18.5022 11.2502 18.2508 11.2502 17.9344V13.4146C10.9309 13.3804 10.618 13.3245 10.3132 13.2484C9.9121 13.1483 9.67061 12.7518 9.77385 12.3628C9.8771 11.9739 10.286 11.7397 10.6871 11.8398C11.1059 11.9443 11.5458 12.0001 12.0002 12.0001C12.4546 12.0001 12.8944 11.9443 13.3132 11.8398C13.7144 11.7397 14.1233 11.9739 14.2265 12.3628C14.3298 12.7518 14.0883 13.1483 13.6871 13.2484C13.3823 13.3245 13.0695 13.3804 12.7502 13.4146V17.9344C12.7502 18.2508 13.0272 18.5021 13.3508 18.4618C13.7144 18.4165 14.0723 18.3531 14.4236 18.2726C14.7534 18.197 14.99 17.9163 15.0007 17.5878C15.0201 16.9923 15.4494 16.4006 16.1348 16.0149C18.5937 14.6315 20.25 12.0491 20.25 9.09082C20.25 4.67254 16.5563 1.09082 12 1.09082Z" fill="#FFE602"/>
<path fill-rule="evenodd" clip-rule="evenodd" d="M9.01314 19.6602C9.09034 19.2656 9.48282 19.0063 9.88978 19.0812C10.5727 19.2068 11.2781 19.2727 12 19.2727C12.7219 19.2727 13.4273 19.2068 14.1102 19.0812C14.5172 19.0063 14.9097 19.2656 14.9869 19.6602C15.0641 20.0548 14.7967 20.4354 14.3898 20.5103C13.6151 20.6528 12.8162 20.7272 12 20.7272C11.1838 20.7272 10.3849 20.6528 9.61022 20.5103C9.20327 20.4354 8.93594 20.0548 9.01314 19.6602Z" fill="#FFE602"/>
<path fill-rule="evenodd" clip-rule="evenodd" d="M9.75407 22.0304C9.79717 21.6309 10.1661 21.341 10.578 21.3828C11.0451 21.4302 11.5195 21.4545 12 21.4545C12.4805 21.4545 12.9549 21.4302 13.422 21.3828C13.8339 21.341 14.2028 21.6309 14.2459 22.0304C14.289 22.4299 13.99 22.7876 13.578 22.8294C13.0592 22.8821 12.5327 22.909 12 22.909C11.4673 22.909 10.9408 22.8821 10.422 22.8294C10.01 22.7876 9.71097 22.4299 9.75407 22.0304Z" fill="#FFE602"/>
<path d="M12 17.8184V12.7275M12 12.7275C12.5179 12.7275 13.0206 12.6639 13.5 12.5442M12 12.7275C11.4821 12.7275 10.9794 12.6639 10.5 12.5442M14.25 19.796C13.5212 19.93 12.769 20.0002 12 20.0002C11.231 20.0002 10.4788 19.93 9.75 19.796M13.5 22.1064C13.007 22.1564 12.5066 22.182 12 22.182C11.4934 22.182 10.993 22.1564 10.5 22.1064M14.25 17.8184V17.6325C14.25 16.6794 14.9083 15.8644 15.7585 15.3861C17.9955 14.1275 19.5 11.7796 19.5 9.09109C19.5 5.07447 16.1421 1.81836 12 1.81836C7.85786 1.81836 4.5 5.07447 4.5 9.09109C4.5 11.7796 6.00446 14.1275 8.24155 15.3861C9.09173 15.8644 9.75 16.6794 9.75 17.6325V17.8184" stroke="#6A4D00" stroke-width="1.5" stroke-linecap="round" stroke-linejoin="round"/>
</svg>
