<svg width="25" height="18" viewBox="0 0 25 18" fill="none" xmlns="http://www.w3.org/2000/svg">
<path d="M11.1689 11H11.3689V10.8V3.6C11.3689 3.32896 11.4669 3.0724 11.6364 2.88601C11.8052 2.70025 12.03 2.6 12.2598 2.6H20.987C21.7955 2.6 22.5752 2.9531 23.1532 3.58895C23.7318 4.22543 24.0598 5.09244 24.0598 6V16.8C24.0598 17.071 23.9617 17.3276 23.7923 17.514C23.6234 17.6998 23.3987 17.8 23.1689 17.8C22.9391 17.8 22.7143 17.6998 22.5455 17.514C22.376 17.3276 22.278 17.071 22.278 16.8V13.2V13H22.0779H2.44158H2.24158V13.2V16.8C2.24158 17.071 2.14353 17.3276 1.97408 17.514C1.8052 17.6998 1.58048 17.8 1.35067 17.8C1.12087 17.8 0.896146 17.6998 0.727274 17.514C0.557824 17.3276 0.459766 17.071 0.459766 16.8V1.2C0.459766 0.928957 0.557824 0.672401 0.727273 0.486007C0.896147 0.300246 1.12088 0.2 1.35067 0.2C1.58047 0.2 1.8052 0.300246 1.97408 0.486007C2.14353 0.672401 2.24158 0.928957 2.24158 1.2V10.8V11H2.44158H11.1689ZM22.0779 11H22.278V10.8V6C22.278 5.63452 22.1461 5.28063 21.9064 5.01694C21.6661 4.75261 21.3359 4.6 20.987 4.6H13.3507H13.1507V4.8V10.8V11H13.3507H22.0779ZM8.505 8.83214C7.99997 9.20334 7.40846 9.4 6.80522 9.4C5.99677 9.4 5.21708 9.0469 4.63904 8.41105C4.06042 7.77457 3.73249 6.90756 3.73249 6C3.73249 5.32353 3.91493 4.66359 4.25498 4.10378C4.59495 3.5441 5.07626 3.11095 5.63573 2.85603C6.19487 2.60127 6.80885 2.535 7.40095 2.66455C7.99327 2.79415 8.54022 3.11466 8.9714 3.58895C9.40276 4.06344 9.69835 4.67017 9.81826 5.33326C9.93817 5.99638 9.87649 6.68354 9.64166 7.30718C9.40685 7.93075 9.01032 8.46073 8.505 8.83214ZM7.52974 4.84108C7.31718 4.68485 7.06503 4.6 6.80522 4.6C6.45637 4.6 6.12614 4.75261 5.88584 5.01694C5.64612 5.28063 5.51431 5.63452 5.51431 6C5.51431 6.27288 5.5878 6.54098 5.72723 6.77052C5.86674 7.00019 6.06694 7.18227 6.30482 7.29065C6.54303 7.39919 6.80643 7.42798 7.06079 7.37232C7.31493 7.31671 7.54551 7.18006 7.7246 6.98306C7.90351 6.78626 8.02351 6.53772 8.07198 6.2697C8.12044 6.0017 8.0957 5.72375 8.00026 5.4703C7.9048 5.21678 7.74202 4.99711 7.52974 4.84108Z" fill="#838383" stroke="white" stroke-width="0.4"/>
</svg>
