<svg width="18" height="18" viewBox="0 0 18 18" fill="none" xmlns="http://www.w3.org/2000/svg">
<path d="M13.2847 1.51641L15.1617 1.72497C16.0914 1.82826 16.8069 2.56892 16.671 3.49441C16.4012 5.33177 15.4132 8.54365 11.979 11.9779C8.54473 15.4122 5.33246 16.4005 3.49478 16.6707C2.56914 16.8067 1.82824 16.0912 1.72492 15.1613L1.51641 13.2847C1.42833 12.4921 1.81961 11.7229 2.5121 11.3273L3.75842 10.6153C4.54146 10.168 5.52702 10.3 6.1647 10.9377L6.18344 10.9564C6.65629 11.4293 7.33971 11.6288 7.93056 11.3157C8.44728 11.0418 9.12405 10.5902 9.85712 9.85712C10.5902 9.12406 11.0418 8.44728 11.3157 7.93056C11.6288 7.33971 11.4293 6.65629 10.9564 6.18344L10.9377 6.16471C10.3 5.52703 10.1679 4.54147 10.6153 3.75842L11.3273 2.51211C11.7229 1.81961 12.4921 1.42834 13.2847 1.51641Z" stroke="#002E38" stroke-width="2" stroke-linecap="round" stroke-linejoin="round"/>
</svg>
