<svg width="18" height="18" viewBox="0 0 18 18" fill="none" xmlns="http://www.w3.org/2000/svg">
<rect width="18" height="18" fill="white"/>
<path d="M13.2847 1.51623L15.1617 1.72478C16.0914 1.82808 16.8069 2.56874 16.671 3.49423C16.4012 5.33158 15.4132 8.54347 11.979 11.9777C8.54473 15.412 5.33246 16.4004 3.49478 16.6705C2.56914 16.8065 1.82824 16.091 1.72492 15.1611L1.51641 13.2846C1.42833 12.4919 1.81961 11.7227 2.5121 11.3271L3.75842 10.6151C4.54146 10.1678 5.52702 10.2998 6.1647 10.9375L6.18344 10.9562C6.65629 11.4291 7.33971 11.6286 7.93056 11.3155C8.44728 11.0416 9.12405 10.59 9.85712 9.85694C10.5902 9.12387 11.0418 8.4471 11.3157 7.93038C11.6288 7.33953 11.4293 6.65611 10.9564 6.18326L10.9377 6.16452C10.3 5.52684 10.1679 4.54129 10.6153 3.75824L11.3273 2.51193C11.7229 1.81943 12.4921 1.42816 13.2847 1.51623Z" stroke="#002E38" stroke-width="2" stroke-linejoin="round"/>
</svg>
