<svg width="25" height="18" viewBox="0 0 25 18" fill="none" xmlns="http://www.w3.org/2000/svg">
<path d="M13.2098 2.15002H13.4598H15.4398H15.442V2.15003C15.73 2.15263 16.0106 2.2409 16.2482 2.40359C16.4856 2.56617 16.6693 2.79571 16.7758 3.063L13.2098 2.15002ZM13.2098 2.15002V2.40002V6.00002V6.25002H13.4598H17.6838H18.0533L17.9158 5.907L16.776 3.06353L13.2098 2.15002ZM20.0437 6.09299L20.1066 6.25002H20.2758H20.6598C21.5482 6.25002 22.4003 6.60296 23.0286 7.23121C23.6568 7.85945 24.0098 8.71154 24.0098 9.60002V13.2C24.0098 13.452 23.9097 13.6936 23.7315 13.8718C23.5534 14.0499 23.3117 14.15 23.0598 14.15H21.8598H21.6098V14.4C21.6098 15.2885 21.2568 16.1406 20.6286 16.7688C20.0003 17.3971 19.1482 17.75 18.2598 17.75C17.3713 17.75 16.5192 17.3971 15.891 16.7688C15.2627 16.1406 14.9098 15.2885 14.9098 14.4V14.15H14.6598H9.85977H9.60977V14.4C9.60977 15.2885 9.25682 16.1406 8.62857 16.7688C8.00033 17.3971 7.14824 17.75 6.25977 17.75C5.37129 17.75 4.5192 17.3971 3.89096 16.7688C3.26271 16.1406 2.90977 15.2885 2.90977 14.4V14.15H2.65977H1.45977C1.20781 14.15 0.966173 14.0499 0.788014 13.8718C0.609855 13.6936 0.509766 13.452 0.509766 13.2V9.60002C0.509766 8.71154 0.862711 7.85945 1.49096 7.23121C2.1192 6.60296 2.97129 6.25002 3.85977 6.25002H4.07577H4.28056L4.32087 6.04923L4.94487 2.94123L4.94488 2.94118C5.09745 2.18057 5.50926 1.49648 6.11003 1.00568C6.7108 0.514877 7.46329 0.247793 8.23905 0.250015H8.23977H15.4396C16.1073 0.250726 16.7596 0.450949 17.3127 0.824991C17.8658 1.19905 18.2946 1.72988 18.5438 2.34935L20.0437 6.09299ZM6.8068 3.31007L6.80662 3.31099L6.27862 5.95099L6.21881 6.25002H6.52377H11.0598H11.3098V6.00002V2.40002V2.15002H11.0598H8.25417C7.91587 2.14381 7.58602 2.25611 7.32176 2.46751C7.05682 2.67946 6.8746 2.97762 6.8068 3.31007ZM21.8598 12.25H22.1098V12V9.60002C22.1098 9.21545 21.957 8.84664 21.6851 8.57471C21.4131 8.30278 21.0443 8.15001 20.6598 8.15001H3.85977C3.4752 8.15001 3.10639 8.30278 2.83446 8.57471C2.56253 8.84664 2.40977 9.21545 2.40977 9.60002V12V12.25H2.65977H3.59577H3.70637L3.78077 12.1682C4.09475 11.8227 4.47747 11.5467 4.90437 11.3578C5.33128 11.169 5.79295 11.0714 6.25977 11.0714C6.72659 11.0714 7.18825 11.169 7.61516 11.3578C8.04206 11.5467 8.42478 11.8227 8.73876 12.1682L8.81316 12.25H8.92377H15.5958H15.7064L15.7808 12.1682C16.0948 11.8227 16.4775 11.5467 16.9044 11.3578C17.3313 11.169 17.7929 11.0714 18.2598 11.0714C18.7266 11.0714 19.1882 11.169 19.6152 11.3578C20.0421 11.5467 20.4248 11.8227 20.7388 12.1682L20.8132 12.25H20.9238H21.8598ZM16.8376 14.1171L17.0828 14.1659L16.8376 14.1171C16.7817 14.3984 16.8104 14.69 16.9201 14.9549C17.0299 15.2199 17.2157 15.4463 17.4542 15.6056C17.6926 15.765 17.973 15.85 18.2598 15.85C18.6443 15.85 19.0131 15.6972 19.2851 15.4253C19.557 15.1534 19.7098 14.7846 19.7098 14.4C19.7098 14.1132 19.6247 13.8329 19.4654 13.5944C19.3061 13.356 19.0796 13.1701 18.8147 13.0604C18.5497 12.9506 18.2582 12.9219 17.9769 12.9779C17.6956 13.0338 17.4372 13.1719 17.2345 13.3747C17.0317 13.5775 16.8936 13.8359 16.8376 14.1171ZM5.45419 15.6056C5.69264 15.765 5.97298 15.85 6.25977 15.85C6.64433 15.85 7.01314 15.6972 7.28507 15.4253C7.557 15.1534 7.70977 14.7846 7.70977 14.4C7.70977 14.1132 7.62473 13.8329 7.4654 13.5944C7.30607 13.356 7.07961 13.1701 6.81466 13.0604C6.5497 12.9506 6.25816 12.9219 5.97688 12.9779C5.69561 13.0338 5.43725 13.1719 5.23446 13.3747C5.03167 13.5775 4.89358 13.8359 4.83763 14.1171C4.78168 14.3984 4.81039 14.69 4.92014 14.9549C5.02989 15.2199 5.21574 15.4463 5.45419 15.6056Z" fill="#838383" stroke="white" stroke-width="0.5"/>
</svg>
