<svg width="18" height="18" viewBox="0 0 18 18" fill="none" xmlns="http://www.w3.org/2000/svg">
<path d="M14.1576 6.59107L13.6648 6.07707C13.5165 5.92328 13.3158 5.83697 13.1067 5.83697C12.8975 5.83697 12.6969 5.92328 12.5485 6.07707C12.4743 6.15383 12.4154 6.24515 12.3753 6.34577C12.3351 6.44638 12.3144 6.55431 12.3144 6.66331C12.3144 6.77231 12.3351 6.88023 12.3753 6.98085C12.4154 7.08146 12.4743 7.17279 12.5485 7.24954L14.1576 6.59107ZM14.1576 6.59107L14.1549 6.59384L14.2269 6.66331M14.1576 6.59107L14.2269 6.66331M14.2269 6.66331L14.2991 6.5941L14.2964 6.59132M14.2269 6.66331L14.2964 6.59132M14.2964 6.59132L15.351 5.49909L14.2964 6.59132ZM16.9569 4.98174L16.957 4.98184C17.0863 5.11753 17.1596 5.30192 17.1596 5.49496C17.1596 5.68799 17.0863 5.87239 16.957 6.00808L14.7168 8.34455L7.99553 15.3546L5.7554 17.691C5.75533 17.6911 5.75527 17.6912 5.75521 17.6912C5.62605 17.8247 5.45268 17.8992 5.27269 17.9H5.27253C5.1821 17.9005 5.09235 17.8825 5.00839 17.8467C4.92446 17.8109 4.84784 17.7581 4.78302 17.6911C4.783 17.6911 4.78297 17.6911 4.78294 17.691L0.302598 13.0182C0.302536 13.0181 0.302473 13.018 0.302411 13.018C0.173207 12.8823 0.1 12.698 0.1 12.505C0.1 12.3121 0.173206 12.1278 0.302407 11.9921C0.302471 11.9921 0.302535 11.992 0.302598 11.9919L11.5438 0.308965C11.5438 0.308954 11.5438 0.308942 11.5438 0.308931C11.673 0.175324 11.8464 0.100804 12.0265 0.100013L12.0266 0.100012C12.1171 0.0994667 12.2068 0.117537 12.2908 0.153303C12.3746 0.189023 12.4512 0.24175 12.516 0.308681C12.516 0.308775 12.5161 0.30887 12.5162 0.308965L16.9569 4.98174ZM14.1547 6.73251L14.2266 6.80753L14.2988 6.73277L15.423 5.56855L15.4898 5.49933L15.4232 5.42988L12.0586 1.92071L11.9865 1.84543L11.9143 1.92071L1.83636 12.4317L1.77001 12.5009L1.83636 12.5701L5.20095 16.0793L5.27338 16.1548L5.34555 16.079L6.4618 14.9066L6.52768 14.8374L6.46156 14.7684L4.78343 13.0182C4.78337 13.0181 4.78331 13.018 4.78325 13.018C4.65404 12.8823 4.58083 12.698 4.58083 12.505C4.58083 12.3121 4.65402 12.1278 4.7832 11.9922C4.91312 11.8576 5.08791 11.7828 5.26917 11.7828C5.45051 11.7828 5.62538 11.8576 5.75532 11.9924L7.44153 13.7428L7.51397 13.818L7.58597 13.7423L8.70222 12.5699L8.76857 12.5002L8.70148 12.4312L8.13989 11.8537C8.1398 11.8536 8.13971 11.8535 8.13962 11.8534C8.00898 11.717 7.93489 11.5312 7.93489 11.3367C7.93489 11.142 8.00908 10.9561 8.13989 10.8197C8.27057 10.6834 8.44689 10.6076 8.6298 10.6076C8.81257 10.6076 8.98876 10.6833 9.11941 10.8194C9.1195 10.8195 9.1196 10.8196 9.1197 10.8197L9.67337 11.4054L9.74553 11.4817L9.81823 11.4059L10.9424 10.2334L11.0087 10.1642L10.9424 10.095L9.26681 8.34743C9.15443 8.20911 9.09527 8.03113 9.10204 7.84852C9.10885 7.66465 9.18193 7.491 9.30557 7.36205C9.4291 7.23321 9.59386 7.1585 9.76665 7.15154C9.93821 7.14462 10.1067 7.20494 10.2387 7.32164L11.9143 9.06921L11.9862 9.14423L12.0584 9.06946L13.1826 7.90524L13.2494 7.83603L13.1828 7.76657L12.6207 7.18034L12.6204 7.18004C12.5554 7.11276 12.5036 7.03249 12.4681 6.94375C12.4327 6.85501 12.4144 6.75968 12.4144 6.66331C12.4144 6.56693 12.4327 6.47161 12.4681 6.38286C12.5036 6.29412 12.5554 6.21385 12.6204 6.14657L12.6205 6.14649C12.7505 6.01177 12.9253 5.93697 13.1067 5.93697C13.288 5.93697 13.4628 6.01173 13.5927 6.14637C13.5927 6.14641 13.5928 6.14645 13.5928 6.14649L14.1547 6.73251Z" fill="#838383" stroke="white" stroke-width="0.2"/>
</svg>
