<svg width="19" height="18" viewBox="0 0 19 18" fill="none" xmlns="http://www.w3.org/2000/svg">
<path d="M10.7974 4.5H8.32236C7.90986 4.5 7.57236 4.8375 7.57236 5.25C7.57236 5.6625 7.90986 6 8.32236 6H14.8474C15.2599 6 15.5974 5.6625 15.5974 5.25C15.5974 4.8375 15.2599 4.5 14.8474 4.5H12.2599C12.1099 2.1 10.0849 0.1875 7.60986 0.1875C5.02236 0.1875 2.92236 2.2875 2.92236 4.875V17.0625C2.92236 17.475 3.25986 17.8125 3.67236 17.8125C4.08486 17.8125 4.42236 17.475 4.42236 17.0625V4.875C4.42236 3.1125 5.88486 1.65 7.64736 1.65C9.25986 1.65 10.6474 2.925 10.7974 4.5Z" fill="#838383"/>
<path d="M8.32227 7.5C7.90977 7.5 7.57227 7.8375 7.57227 8.25V8.775C7.57227 9.1875 7.90977 9.525 8.32227 9.525C8.73477 9.525 9.07227 9.1875 9.07227 8.775V8.25C9.07227 7.8375 8.73477 7.5 8.32227 7.5ZM11.5848 7.5C11.1723 7.5 10.8348 7.8375 10.8348 8.25V8.775C10.8348 9.1875 11.1723 9.525 11.5848 9.525C11.9973 9.525 12.3348 9.1875 12.3348 8.775V8.25C12.3348 7.8375 11.9973 7.5 11.5848 7.5ZM14.8473 7.5C14.4348 7.5 14.0973 7.8375 14.0973 8.25V8.775C14.0973 9.1875 14.4348 9.525 14.8473 9.525C15.2598 9.525 15.5973 9.1875 15.5973 8.775V8.25C15.5973 7.8375 15.2598 7.5 14.8473 7.5ZM8.32227 11.3625C7.90977 11.3625 7.57227 11.7 7.57227 12.1125V12.6375C7.57227 13.05 7.90977 13.3875 8.32227 13.3875C8.73477 13.3875 9.07227 13.05 9.07227 12.6375V12.1125C9.07227 11.7 8.73477 11.3625 8.32227 11.3625ZM11.5848 11.3625C11.1723 11.3625 10.8348 11.7 10.8348 12.1125V12.6375C10.8348 13.05 11.1723 13.3875 11.5848 13.3875C11.9973 13.3875 12.3348 13.05 12.3348 12.6375V12.1125C12.3348 11.7 11.9973 11.3625 11.5848 11.3625ZM14.8473 11.3625C14.4348 11.3625 14.0973 11.7 14.0973 12.1125V12.6375C14.0973 13.05 14.4348 13.3875 14.8473 13.3875C15.2598 13.3875 15.5973 13.05 15.5973 12.6375V12.1125C15.5973 11.7 15.2598 11.3625 14.8473 11.3625Z" fill="#838383"/>
</svg>
